<svg width="64" height="64" viewBox="0 0 64 64" fill="none" xmlns="http://www.w3.org/2000/svg">
<g id="bi:lightning-charge-fill" clip-path="url(#clip0_77_118)">
<path id="Vector" d="M45.004 0.271997C45.3955 0.498951 45.6984 0.851957 45.8634 1.27335C46.0283 1.69474 46.0454 2.1596 45.912 2.592L38.708 26H52C52.3906 25.9998 52.7727 26.1141 53.0992 26.3286C53.4256 26.5431 53.6821 26.8485 53.8369 27.2072C53.9918 27.5658 54.0382 27.9619 53.9705 28.3466C53.9028 28.7313 53.724 29.0878 53.456 29.372L21.456 63.372C21.1464 63.7013 20.7344 63.9159 20.2871 63.981C19.8398 64.0461 19.3837 63.9578 18.9931 63.7305C18.6024 63.5031 18.3003 63.1502 18.136 62.7292C17.9716 62.3081 17.9547 61.8439 18.088 61.412L25.292 38H12C11.6094 38.0002 11.2273 37.8859 10.9008 37.6714C10.5744 37.4569 10.3179 37.1514 10.1631 36.7928C10.0082 36.4342 9.96177 36.0381 10.0295 35.6534C10.0972 35.2687 10.276 34.9122 10.544 34.628L42.544 0.627997C42.8533 0.299193 43.2646 0.0846714 43.7113 0.0193111C44.1579 -0.0460491 44.6135 0.0415964 45.004 0.267997V0.271997Z" fill="#95D600"/>
</g>
<defs>
<clipPath id="clip0_77_118">
<rect width="64" height="64" fill="white"/>
</clipPath>
</defs>
</svg>
