<svg width="64" height="64" viewBox="0 0 64 64" fill="none" xmlns="http://www.w3.org/2000/svg">
<g id="tabler:bulb-filled" clip-path="url(#clip0_73_78)">
<g id="Group">
<path id="Vector" d="M10.6667 29.3333C11.3463 29.3341 12.0001 29.5943 12.4943 30.0609C12.9885 30.5275 13.286 31.1652 13.3258 31.8437C13.3656 32.5222 13.1449 33.1903 12.7086 33.7115C12.2724 34.2328 11.6536 34.5677 10.9787 34.648L10.6667 34.6667H8C7.32032 34.6659 6.66658 34.4056 6.17235 33.9391C5.67812 33.4725 5.38071 32.8348 5.34088 32.1563C5.30104 31.4778 5.5218 30.8096 5.95804 30.2884C6.39428 29.7672 7.01308 29.4323 7.688 29.352L8 29.3333H10.6667ZM32 5.33333C32.6532 5.33341 33.2836 5.57321 33.7717 6.00724C34.2598 6.44126 34.5716 7.03932 34.648 7.68799L34.6667 7.99999V10.6667C34.6659 11.3463 34.4057 12.0001 33.9391 12.4943C33.4725 12.9885 32.8348 13.286 32.1563 13.3258C31.4778 13.3656 30.8097 13.1449 30.2884 12.7086C29.7672 12.2724 29.4323 11.6536 29.352 10.9787L29.3333 10.6667V7.99999C29.3333 7.29275 29.6143 6.61447 30.1144 6.11438C30.6145 5.61428 31.2928 5.33333 32 5.33333ZM56 29.3333C56.6797 29.3341 57.3334 29.5943 57.8276 30.0609C58.3219 30.5275 58.6193 31.1652 58.6591 31.8437C58.699 32.5222 58.4782 33.1903 58.042 33.7115C57.6057 34.2328 56.9869 34.5677 56.312 34.648L56 34.6667H53.3333C52.6537 34.6659 51.9999 34.4056 51.5057 33.9391C51.0115 33.4725 50.714 32.8348 50.6742 32.1563C50.6344 31.4778 50.8551 30.8096 51.2914 30.2884C51.7276 29.7672 52.3464 29.4323 53.0213 29.352L53.3333 29.3333H56ZM13.048 13.048C13.5072 12.5889 14.1181 12.313 14.7662 12.2723C15.4143 12.2315 16.0549 12.4287 16.568 12.8267L16.8187 13.048L18.6853 14.9147C19.1636 15.3945 19.4413 16.0385 19.4619 16.7157C19.4826 17.3929 19.2448 18.0526 18.7967 18.5607C18.3486 19.0689 17.7239 19.3875 17.0494 19.4517C16.3749 19.516 15.7013 19.3211 15.1653 18.9067L14.9147 18.6853L13.048 16.8187C12.5481 16.3186 12.2672 15.6404 12.2672 14.9333C12.2672 14.2262 12.5481 13.5481 13.048 13.048ZM47.1813 13.048C47.6612 12.5697 48.3052 12.2921 48.9824 12.2714C49.6596 12.2507 50.3192 12.4886 50.8274 12.9367C51.3356 13.3847 51.6542 14.0095 51.7184 14.6839C51.7826 15.3584 51.5878 16.032 51.1733 16.568L50.952 16.8187L49.0853 18.6853C48.6054 19.1636 47.9615 19.4413 47.2843 19.4619C46.6071 19.4826 45.9474 19.2448 45.4393 18.7967C44.9311 18.3486 44.6125 17.7239 44.5483 17.0494C44.484 16.3749 44.6789 15.7013 45.0933 15.1653L45.3147 14.9147L47.1813 13.048ZM37.3333 48C38.0406 48 38.7189 48.2809 39.219 48.781C39.719 49.2811 40 49.9594 40 50.6667C40 52.7884 39.1571 54.8232 37.6569 56.3235C36.1566 57.8238 34.1217 58.6667 32 58.6667C29.8783 58.6667 27.8434 57.8238 26.3431 56.3235C24.8429 54.8232 24 52.7884 24 50.6667C24.0001 50.0135 24.2399 49.3831 24.6739 48.895C25.1079 48.4069 25.706 48.0951 26.3547 48.0187L26.6667 48H37.3333ZM32 16C35.3581 16 38.6311 17.0566 41.3554 19.0201C44.0796 20.9836 46.117 23.7546 47.1789 26.9403C48.2409 30.1261 48.2735 33.5653 47.2722 36.7707C46.2709 39.976 44.2865 42.7851 41.6 44.8C41.2325 45.0761 40.7998 45.2524 40.344 45.312L40 45.3333H24C23.423 45.3333 22.8616 45.1462 22.4 44.8C19.7135 42.7851 17.7291 39.976 16.7278 36.7707C15.7265 33.5653 15.7591 30.1261 16.8211 26.9403C17.883 23.7546 19.9204 20.9836 22.6446 19.0201C25.3689 17.0566 28.6419 16 32 16Z" fill="#95D600"/>
</g>
</g>
<defs>
<clipPath id="clip0_73_78">
<rect width="64" height="64" fill="white"/>
</clipPath>
</defs>
</svg>
