<svg width="64" height="64" viewBox="0 0 64 64" fill="none" xmlns="http://www.w3.org/2000/svg">
<g id="fluent-mdl2:player-settings" clip-path="url(#clip0_77_128)">
<path id="Vector" d="M24 32C22.1667 32 20.3958 32.2396 18.6875 32.7188C16.9792 33.1979 15.3854 33.8646 13.9062 34.7188C12.4271 35.5729 11.0833 36.6146 9.875 37.8438C8.66667 39.0729 7.625 40.4271 6.75 41.9062C5.875 43.3854 5.19792 44.9792 4.71875 46.6875C4.23958 48.3958 4 50.1667 4 52H0C0 49.5625 0.364583 47.1771 1.09375 44.8438C1.82292 42.5104 2.875 40.3542 4.25 38.375C5.625 36.3958 7.26042 34.6354 9.15625 33.0938C11.0521 31.5521 13.1667 30.375 15.5 29.5625C14.3333 28.8125 13.2917 27.9479 12.375 26.9688C11.4583 25.9896 10.6667 24.9167 10 23.75C9.33333 22.5833 8.84375 21.3542 8.53125 20.0625C8.21875 18.7708 8.04167 17.4167 8 16C8 13.7917 8.41667 11.7188 9.25 9.78125C10.0833 7.84375 11.2188 6.14583 12.6562 4.6875C14.0938 3.22917 15.7917 2.08333 17.75 1.25C19.7083 0.416667 21.7917 0 24 0C26.2083 0 28.2812 0.416667 30.2188 1.25C32.1562 2.08333 33.8542 3.21875 35.3125 4.65625C36.7708 6.09375 37.9167 7.79167 38.75 9.75C39.5833 11.7083 40 13.7917 40 16C40 17.3958 39.8333 18.7396 39.5 20.0312C39.1667 21.3229 38.6667 22.5625 38 23.75C37.3333 24.9375 36.5521 26.0104 35.6562 26.9688C34.7604 27.9271 33.7083 28.7917 32.5 29.5625C33.9375 30.1042 35.3125 30.7708 36.625 31.5625C37.9375 32.3542 39.1562 33.2812 40.2812 34.3438L37.5625 37.3125C35.7083 35.6042 33.6146 34.2917 31.2812 33.375C28.9479 32.4583 26.5208 32 24 32ZM12 16C12 17.6667 12.3125 19.2188 12.9375 20.6562C13.5625 22.0938 14.4167 23.3646 15.5 24.4688C16.5833 25.5729 17.8542 26.4375 19.3125 27.0625C20.7708 27.6875 22.3333 28 24 28C25.6458 28 27.1979 27.6875 28.6562 27.0625C30.1146 26.4375 31.3854 25.5833 32.4688 24.5C33.5521 23.4167 34.4167 22.1458 35.0625 20.6875C35.7083 19.2292 36.0208 17.6667 36 16C36 14.3542 35.6875 12.8021 35.0625 11.3438C34.4375 9.88542 33.5833 8.61458 32.5 7.53125C31.4167 6.44792 30.1354 5.58333 28.6562 4.9375C27.1771 4.29167 25.625 3.97917 24 4C22.3333 4 20.7812 4.3125 19.3438 4.9375C17.9062 5.5625 16.6354 6.41667 15.5312 7.5C14.4271 8.58333 13.5625 9.86458 12.9375 11.3438C12.3125 12.8229 12 14.375 12 16ZM59.8125 48.0938C59.9375 48.7188 60 49.3542 60 50C60 50.6458 59.9375 51.2812 59.8125 51.9062L63.6875 53.5L62.1562 57.2188L58.2812 55.5938C57.5521 56.6562 56.6562 57.5521 55.5938 58.2812L57.2188 62.1562L53.5 63.6875L51.9062 59.8125C51.2812 59.9375 50.6458 60 50 60C49.3542 60 48.7188 59.9375 48.0938 59.8125L46.5 63.6875L42.7812 62.1562L44.4062 58.2812C43.3438 57.5521 42.4479 56.6562 41.7188 55.5938L37.8438 57.2188L36.3125 53.5L40.1875 51.9062C40.0625 51.2812 40 50.6458 40 50C40 49.3542 40.0625 48.7188 40.1875 48.0938L36.3125 46.5L37.8438 42.7812L41.7188 44.4062C42.4479 43.3438 43.3438 42.4479 44.4062 41.7188L42.7812 37.8438L46.5 36.3125L48.0938 40.1875C48.7188 40.0625 49.3542 40 50 40C50.6458 40 51.2812 40.0625 51.9062 40.1875L53.5 36.3125L57.2188 37.8438L55.5938 41.7188C56.6562 42.4479 57.5521 43.3438 58.2812 44.4062L62.1562 42.7812L63.6875 46.5L59.8125 48.0938ZM50 56C50.8333 56 51.6146 55.8438 52.3438 55.5312C53.0729 55.2188 53.7083 54.7917 54.25 54.25C54.7917 53.7083 55.2188 53.0729 55.5312 52.3438C55.8438 51.6146 56 50.8333 56 50C56 49.1667 55.8438 48.3854 55.5312 47.6562C55.2188 46.9271 54.7917 46.2917 54.25 45.75C53.7083 45.2083 53.0729 44.7812 52.3438 44.4688C51.6146 44.1562 50.8333 44 50 44C49.1667 44 48.3854 44.1562 47.6562 44.4688C46.9271 44.7812 46.2917 45.2083 45.75 45.75C45.2083 46.2917 44.7812 46.9271 44.4688 47.6562C44.1562 48.3854 44 49.1667 44 50C44 50.8333 44.1562 51.6146 44.4688 52.3438C44.7812 53.0729 45.2083 53.7083 45.75 54.25C46.2917 54.7917 46.9271 55.2188 47.6562 55.5312C48.3854 55.8438 49.1667 56 50 56Z" fill="#95D600"/>
</g>
<defs>
<clipPath id="clip0_77_128">
<rect width="64" height="64" fill="white"/>
</clipPath>
</defs>
</svg>
