<svg width="64" height="64" viewBox="0 0 64 64" fill="none" xmlns="http://www.w3.org/2000/svg">
<g id="Smart">
<path id="Vector" d="M29.3333 2.66667C13.1642 2.66667 0 15.8309 0 32C0 48.1691 13.1642 61.3333 29.3333 61.3333C34.2252 61.3333 38.8094 60.063 42.8594 57.9427C43.2977 57.8914 43.7165 57.7321 44.0781 57.4792C52.8 51.3747 59.3597 43.1409 63.776 33.0729C63.9199 32.7441 63.9958 32.3896 63.9994 32.0308C64.003 31.6719 63.9341 31.316 63.7969 30.9844C59.6575 20.9352 52.9324 12.8089 44.0885 6.53125C43.7274 6.27643 43.3086 6.11535 42.8698 6.0625C38.8173 3.9389 34.2293 2.66667 29.3333 2.66667ZM29.3333 8C33.1558 8 36.6765 9.03382 39.8802 10.6302V17.6458C37.1511 16.5697 34.2187 15.8588 31.0156 16.0573C20.9978 16.6751 12.8096 24.0859 13.3698 33.151C13.93 42.2164 22.9668 48.5635 32.9844 47.9427C35.4701 47.7892 37.748 47.1253 39.8802 46.224V53.3698C36.6765 54.9662 33.1558 56 29.3333 56C16.0464 56 5.33333 45.2869 5.33333 32C5.33333 18.7131 16.0464 8 29.3333 8ZM31.3438 21.3802C34.5717 21.1802 37.5205 21.9652 39.8802 23.3125V40.349C37.8576 41.5962 35.4002 42.4503 32.6562 42.6198C25.0311 43.0923 19.0392 38.4295 18.6927 32.8229C18.3462 27.2161 23.719 21.8504 31.3438 21.3802Z" fill="#95D600"/>
</g>
</svg>
